<svg width="192" height="192" viewBox="0 0 192 192" xmlns="http://www.w3.org/2000/svg">
  <!-- Background -->
  <rect width="192" height="192" fill="#1a1a1a"/>

  <!-- Dinosaur body (simplified T-Rex style) -->
  <g transform="translate(96, 96)">
    <!-- Body -->
    <ellipse cx="0" cy="10" rx="45" ry="35" fill="#4CAF50"/>

    <!-- Head -->
    <ellipse cx="-35" cy="-15" rx="25" ry="25" fill="#4CAF50"/>

    <!-- Eye -->
    <circle cx="-42" cy="-18" r="4" fill="#ffffff"/>
    <circle cx="-42" cy="-18" r="2" fill="#000000"/>

    <!-- Snout -->
    <ellipse cx="-52" cy="-10" rx="8" ry="6" fill="#388E3C"/>

    <!-- Tail -->
    <path d="M 35,15 Q 55,10 65,0" stroke="#4CAF50" stroke-width="18" fill="none" stroke-linecap="round"/>

    <!-- Spikes on back -->
    <polygon points="0,-20 8,-35 16,-20" fill="#66BB6A"/>
    <polygon points="12,-18 20,-33 28,-18" fill="#66BB6A"/>
    <polygon points="24,-16 32,-28 40,-16" fill="#66BB6A"/>

    <!-- Left leg -->
    <rect x="-20" y="35" width="12" height="25" rx="6" fill="#388E3C"/>
    <ellipse cx="-14" cy="62" rx="8" ry="5" fill="#388E3C"/>

    <!-- Right leg -->
    <rect x="8" y="35" width="12" height="25" rx="6" fill="#388E3C"/>
    <ellipse cx="14" cy="62" rx="8" ry="5" fill="#388E3C"/>

    <!-- Left arm (small) -->
    <rect x="-25" y="0" width="8" height="15" rx="4" fill="#388E3C"/>

    <!-- Right arm (small) -->
    <rect x="17" y="0" width="8" height="15" rx="4" fill="#388E3C"/>
  </g>
</svg>
